# xmcd
#
# Track frame offsets:
#	150
#	14096
#	26745
#	43597
#	59171
#	76087
#	88905
#	105149
#	118835
#	131527
#	139229
#	159838
#	176053
#
# Disc length: 2485 seconds
#
# Revision: 1
# Processed by: cddbd v1.5.1PL2 Copyright (c) Steve Scherf et al.
# Submitted via: audiograbber 1.83.01
#
DISCID=ad09b30d
DTITLE=The Offsring - Conspiracy Of One
DYEAR=1900
DGENRE=
TTITLE0=Intro
TTITLE1=Come Out Swinging
TTITLE2=Original Prankster
TTITLE3=Want You Bad
TTITLE4=Million Miles Away
TTITLE5=Dammit I Changed Again
TTITLE6=Living' iN Gaos
TTITLE7=Special Delivery
TTITLE8=One Fine Day
TTITLE9=All Alon
TTITLE10=Denial Revisited
TTITLE11=Vulteres
TTITLE12=Conspiracy Of One
EXTD=
EXTT0=
EXTT1=
EXTT2=
EXTT3=
EXTT4=
EXTT5=
EXTT6=
EXTT7=
EXTT8=
EXTT9=
EXTT10=
EXTT11=
EXTT12=
PLAYORDER=
